<svg xmlns="http://www.w3.org/2000/svg" viewBox="0 0 512 512">
  <defs>
    <radialGradient id="bg" cx="50%" cy="45%" r="60%">
      <stop offset="0%" stop-color="#ffe9f1"/>
      <stop offset="100%" stop-color="#ffc8de"/>
    </radialGradient>
  </defs>
  <rect width="512" height="512" rx="96" fill="url(#bg)"/>

  <g transform="translate(56 56)">
    <!-- Sombra -->
    <ellipse cx="200" cy="372" rx="120" ry="11" fill="rgba(40,20,50,0.20)"/>

    <!-- Cuerpo -->
    <path d="M 55 232 C 55 150, 112 105, 200 105 C 288 105, 345 150, 345 232 C 345 312, 285 358, 200 358 C 115 358, 55 312, 55 232 Z"
      fill="#fff0d4" stroke="#8a5530" stroke-width="8" stroke-linejoin="round"/>

    <!-- Brillito -->
    <ellipse cx="138" cy="195" rx="42" ry="22" fill="#ffffff" opacity="0.4" transform="rotate(-22 138 195)"/>

    <!-- Pliegues -->
    <g stroke="#8a5530" stroke-width="6" stroke-linecap="round" fill="none">
      <path d="M 200 116 C 172 134, 122 150, 76 202"/>
      <path d="M 200 116 C 186 132, 148 150, 124 188"/>
      <path d="M 200 116 C 196 128, 175 150, 170 182"/>
      <path d="M 200 116 C 204 128, 225 150, 230 182"/>
      <path d="M 200 116 C 214 132, 252 150, 276 188"/>
      <path d="M 200 116 C 228 134, 278 150, 324 202"/>
    </g>
    <ellipse cx="200" cy="112" rx="8" ry="5" fill="#8a5530"/>

    <!-- Blush -->
    <g fill="#ff8fb5" opacity="0.75">
      <ellipse cx="125" cy="265" rx="20" ry="10"/>
      <ellipse cx="275" cy="265" rx="20" ry="10"/>
    </g>
    <!-- Ojitos simples -->
    <g fill="#3a2218">
      <circle cx="155" cy="225" r="11"/>
      <circle cx="245" cy="225" r="11"/>
    </g>
    <!-- Sonrisita -->
    <path d="M 178 278 Q 200 295 222 278" fill="none" stroke="#3a2218" stroke-width="7" stroke-linecap="round"/>
  </g>
</svg>
